Coordinates
version=1
nRows=21
nColumns=33
inDegrees=yes

Units are S.I. units (second, meters, Newtons, ...)
Angles are in degrees.

endheader
time	ground_thorax_rot_x	ground_thorax_rot_y	ground_thorax_rot_z	ground_thorax_tx	ground_thorax_ty	ground_thorax_tz	clav_prot_r	clav_elev_r	scapula_abduction_r	scapula_elevation_r	scapula_upward_rot_r	scapula_winging_r	shoulder_elv_r	plane_of_elev_r	axial_rot_r	elbow_flexion_r	pro_sup_r	wrist_flex_r	wrist_dev_r	clav_prot_l	clav_elev_l	scapula_abduction_l	scapula_elevation_l	scapula_upward_rot_l	scapula_winging_l	shoulder_elv_l	plane_of_elev_l	axial_rot_l	elbow_flexion_l	pro_sup_l	wrist_flex_l	wrist_dev_l
      6.90000000	    -40.90302901	     -9.80392795	      6.31621898	   -221.89396703	    849.51665596	     -4.73092130	     10.06919234	    -45.00000000	     33.39153756	    -45.00000000	    -45.00000000	   1699.89047561	  -1190.98230629	    151.72842716	    -88.22506287	   -706.98251653	     41.59086309	     18.36733920	      7.04875892	     15.05967075	     38.45501459	    -35.08383856	    -45.00000000	    -45.00000000	   -995.85518597	  -2809.58763311	     18.87626004	    -47.48900058	    369.71174791	     30.10156690	      9.76889209	    -22.25116103
      6.91000000	    -40.91881672	     -9.49955753	      6.32413066	   -223.19496893	    851.56743239	     -4.73459194	      9.63580555	    -45.00000000	     33.26557691	    -45.00000000	    -45.00000000	   1699.80378652	  -1190.85787319	    151.78351612	    -88.94782957	   -706.88715490	     41.36057660	     18.15926443	      7.12963490	     14.82351897	     38.86100071	    -35.20595367	    -45.00000000	    -45.00000000	   -995.63173321	  -2809.42765884	     18.75588535	    -48.75264072	    370.13526226	     31.61475027	      9.57729693	    -22.56644754
      6.92000000	    -40.92085408	     -9.30306918	      6.21221962	   -224.22203456	    853.53367149	     -4.71169639	      9.85562501	    -45.00000000	     33.37678663	    -45.00000000	    -45.00000000	   1699.64513559	  -1190.84180295	    151.57900605	    -88.99955150	   -706.75104800	     41.22394240	     18.19072932	      6.99817310	     14.92810066	     38.59256152	    -35.13565145	    -45.00000000	    -45.00000000	   -995.55118728	  -2809.41069920	     18.70620788	    -48.45643120	    370.25137289	     32.67651975	      9.33474000	    -22.58275488
      6.93000000	    -40.89696799	     -9.14924118	      6.20017014	   -225.00233432	    855.41221147	     -4.67515897	      9.87763981	    -45.00000000	     33.46761063	    -45.00000000	    -45.00000000	   1699.54734223	  -1190.72732528	    151.49700545	    -89.08398257	   -706.60653208	     41.15653158	     18.23650513	      6.97421258	     14.95023970	     38.36413531	    -35.02965196	    -45.00000000	    -45.00000000	   -995.51707985	  -2809.44438878	     18.73191350	    -48.15772938	    370.28178256	     33.53836407	      9.12839174	    -22.58094166
      6.94000000	    -40.95841259	     -8.84523932	      6.06938472	   -225.54688892	    857.19990908	     -4.63480641	      9.88916864	    -45.00000000	     33.47668032	    -45.00000000	    -45.00000000	   1699.45847265	  -1190.76294284	    151.34534088	    -89.45792503	   -706.52566018	     41.14472415	     18.18226486	      6.80710973	     14.88727893	     38.44977450	    -35.13969739	    -45.00000000	    -45.00000000	   -995.37159290	  -2809.36029083	     18.72789696	    -48.18270045	    370.44499719	     34.11581791	      9.05206937	    -22.66988948
      6.95000000	    -40.98510450	     -8.66479492	      6.02210166	   -225.86708674	    858.88901010	     -4.59819241	      9.93385649	    -45.00000000	     33.53620242	    -45.00000000	    -45.00000000	   1699.40391527	  -1190.74826202	    151.27294786	    -89.69445413	   -706.42055813	     41.21844258	     18.19520071	      6.73583406	     14.90036764	     38.35488760	    -35.11197719	    -45.00000000	    -45.00000000	   -995.36062977	  -2809.28862341	     18.69990053	    -48.13153839	    370.48097006	     34.49558337	      8.94316851	    -22.66909075
      6.96000000	    -40.95513440	     -8.31597673	      5.72349631	   -225.97876277	    860.47579306	     -4.57133990	      9.99867798	    -45.00000000	     33.62589661	    -45.00000000	    -45.00000000	   1699.34157468	  -1190.73123423	    150.91962756	    -90.02952949	   -706.28404610	     41.32806009	     18.15311010	      6.53928509	     14.89768409	     38.29657073	    -35.26721482	    -45.00000000	    -45.00000000	   -995.30382034	  -2809.44961032	     18.74536391	    -48.07260271	    370.53719299	     34.69839286	      8.88414857	    -22.68652431
      6.97000000	    -40.96955695	     -8.55355992	      6.09778657	   -225.89994649	    861.96698289	     -4.55746231	      9.94014928	    -45.00000000	     33.70843939	    -45.00000000	    -45.00000000	   1699.39506244	  -1190.43145861	    151.15533384	    -90.16132617	   -706.09966162	     41.54079037	     18.31653198	      6.61468443	     15.02702141	     38.40241481	    -34.96180018	    -45.00000000	    -45.00000000	   -995.22361553	  -2809.24031142	     18.68255778	    -47.79030438	    370.71489968	     34.75628220	      8.73330439	    -22.67356267
      6.98000000	    -41.07671108	     -8.29576485	      5.99687802	   -225.64924479	    863.35764511	     -4.55633676	     10.02381876	    -45.00000000	     33.71728903	    -45.00000000	    -45.00000000	   1699.33144178	  -1190.57821482	    150.97688634	    -90.48788000	   -706.04141727	     41.82712314	     18.21849324	      6.41790356	     14.92170986	     38.23881229	    -35.11646197	    -45.00000000	    -45.00000000	   -995.17621255	  -2809.19794138	     18.72513649	    -47.77194215	    370.52954756	     34.81213512	      8.74094691	    -22.63269881
      6.99000000	    -41.10901019	     -7.99240580	      5.83938284	   -225.24692926	    864.65442887	     -4.56395557	     10.03484162	    -45.00000000	     33.65574404	    -45.00000000	    -45.00000000	   1699.33453974	  -1190.48262155	    150.71834456	    -90.83563771	   -705.88937961	     42.12514011	     18.22051558	      6.27186757	     14.98958254	     38.36207207	    -35.33794350	    -45.00000000	    -45.00000000	   -995.13140086	  -2809.15238664	     18.69465270	    -47.80999652	    370.67873369	     34.78508597	      8.68154329	    -22.66835598
      7.00000000	    -41.08932053	     -8.09284818	      5.93559767	   -224.71283934	    865.86611078	     -4.57390310	      9.95494388	    -45.00000000	     33.92848478	    -45.00000000	    -45.00000000	   1699.38278548	  -1190.29295740	    150.72909033	    -91.13316784	   -705.68297611	     42.46928896	     18.28886114	      6.22862149	     15.04759733	     38.17833409	    -35.28765932	    -45.00000000	    -45.00000000	   -994.88704994	  -2809.21041532	     18.77338407	    -47.69212868	    370.81623144	     34.73422773	      8.58039254	    -22.64201318
      7.01000000	    -41.18769902	     -7.75293719	      5.74615957	   -224.06773740	    867.00400717	     -4.57807461	     10.20469484	    -45.00000000	     33.90052641	    -45.00000000	    -45.00000000	   1699.28171703	  -1190.42311118	    150.38418773	    -91.55128239	   -705.55483037	     42.82427030	     18.22789149	      6.03093390	     14.94959742	     38.42205133	    -35.51079483	    -45.00000000	    -45.00000000	   -995.00006031	  -2808.97291932	     18.68069906	    -47.69908571	    370.90045811	     34.73882892	      8.56844460	    -22.70743683
      7.02000000	    -41.22502188	     -7.94187310	      6.01763629	   -223.33105203	    868.07833160	     -4.57056751	      9.83631176	    -45.00000000	     33.86105458	    -45.00000000	    -45.00000000	   1699.62969191	  -1189.97698914	    150.66547407	    -91.70547753	   -705.34536702	     43.24474573	     18.40701043	      6.13347036	     15.17578490	     38.08076053	    -35.48756527	    -45.00000000	    -45.00000000	   -994.66309895	  -2809.10965967	     18.89281028	    -47.55738825	    370.76908890	     34.79323992	      8.43822497	    -22.56739118
      7.03000000	    -41.31502069	     -7.74856811	      5.97485704	   -222.52797412	    869.11297375	     -4.54190649	     10.01824300	    -45.00000000	     34.04388677	    -45.00000000	    -45.00000000	   1699.37659071	  -1190.25011352	    150.39098585	    -92.12086395	   -705.30355713	     43.69458637	     18.27603296	      5.91887799	     15.02694718	     38.39312280	    -35.56200643	    -45.00000000	    -45.00000000	   -994.88352489	  -2808.81270372	     18.81543540	    -47.59684018	    370.71936729	     34.96011328	      8.39269471	    -22.58092832
      7.04000000	    -41.32954815	     -7.50887002	      5.86639384	   -221.67049197	    870.11229649	     -4.49632403	     10.01425367	    -45.00000000	     33.77845891	    -45.00000000	    -45.00000000	   1699.62832956	  -1189.87618768	    150.24468981	    -92.31147333	   -705.09563918	     44.11183625	     18.33089247	      5.85348368	     15.03257499	     38.08455181	    -35.76412797	    -45.00000000	    -45.00000000	   -994.76155028	  -2808.77451766	     18.94211971	    -47.62039090	    370.91573753	     35.16812367	      8.34482666	    -22.63052282
      7.05000000	    -41.34548841	     -7.66488493	      5.93779560	   -220.76615455	    871.08156110	     -4.44107179	      9.85190908	    -45.00000000	     34.21243556	    -45.00000000	    -45.00000000	   1699.49626792	  -1189.85272496	    150.08191244	    -92.58027532	   -704.92066878	     44.53824909	     18.30808691	      5.70855824	     15.07405160	     38.54690494	    -35.61289674	    -45.00000000	    -45.00000000	   -994.74522268	  -2808.57511710	     18.91596163	    -47.48287235	    371.06649679	     35.43931466	      8.18651918	    -22.62963022
      7.06000000	    -41.36656828	     -7.57663510	      5.88528801	   -219.81253504	    872.00880388	     -4.39150910	     10.31683561	    -45.00000000	     34.28872079	    -45.00000000	    -45.00000000	   1699.56673644	  -1189.68989247	    149.90676307	    -92.91367167	   -704.75978981	     45.00855094	     18.39017968	      5.67025655	     14.85009719	     37.83351239	    -35.58092472	    -45.00000000	    -45.00000000	   -994.70638884	  -2808.42404998	     19.08489559	    -47.47924795	    371.17027843	     35.80690701	      8.19890988	    -22.68503412
      7.07000000	    -41.42650126	     -7.69462770	      6.00782144	   -218.81164100	    872.90000463	     -4.35187037	     10.01990970	    -45.00000000	     34.50273353	    -45.00000000	    -45.00000000	   1699.60634490	  -1189.59990919	    149.87363160	    -93.19896322	   -704.61249129	     45.53595415	     18.38134335	      5.54905533	     14.92799332	     38.76771514	    -35.61134367	    -45.00000000	    -45.00000000	   -994.72154980	  -2808.25211368	     18.93455121	    -47.38835273	    371.19462380	     36.20458287	      8.03217119	    -22.66671824
      7.08000000	    -41.39252528	     -7.43804723	      5.87069600	   -217.75428289	    873.75081242	     -4.32960582	     10.33369290	    -45.00000000	     34.44463535	    -45.00000000	    -45.00000000	   1699.66252436	  -1189.47901549	    149.56785341	    -93.56290186	   -704.59251239	     46.16213036	     18.46169713	      5.53512994	     14.85431477	     37.52685483	    -35.80076352	    -45.00000000	    -45.00000000	   -994.62350899	  -2808.27259277	     19.15511978	    -47.53397433	    371.27523696	     36.65683820	      8.10492348	    -22.73496948
      7.09000000	    -41.57887515	     -7.45472236	      5.98060594	   -216.63686285	    874.57655518	     -4.31983280	     10.03249623	    -45.00000000	     34.59145062	    -45.00000000	    -45.00000000	   1699.81638652	  -1189.48216705	    149.63436072	    -93.85765140	   -704.41269130	     46.92564508	     18.47855109	      5.45019467	     14.94695939	     38.75847662	    -36.06433960	    -45.00000000	    -45.00000000	   -994.56715191	  -2808.08906466	     18.91229264	    -47.52336123	    371.15115040	     37.12617564	      7.94668434	    -22.69948599
      7.10000000	    -41.54050171	     -7.42498691	      6.11374933	   -215.45410582	    875.39329107	     -4.31586147	     10.27143897	    -45.00000000	     34.82380595	    -45.00000000	    -45.00000000	   1699.67497705	  -1189.42515457	    149.46593310	    -94.37627402	   -704.22625098	     47.87442217	     18.54929471	      5.37272631	     14.85003032	     38.05377441	    -36.28768964	    -45.00000000	    -45.00000000	   -994.39420328	  -2808.00215228	     18.91101049	    -47.57847737	    371.42027573	     37.58330302	      7.86576033	    -22.75275144
